<?xml version="1.0" encoding="UTF-8"?>
<svg id="Layer_1" data-name="Layer 1" xmlns="http://www.w3.org/2000/svg" viewBox="0 0 822.38 822.38">
  <defs>
    <style>
      .cls-1 {
        fill: #fdb529;
      }

      .cls-1, .cls-2, .cls-3, .cls-4, .cls-5, .cls-6, .cls-7, .cls-8 {
        stroke-miterlimit: 10;
      }

      .cls-1, .cls-2, .cls-3, .cls-4, .cls-5, .cls-9, .cls-7 {
        stroke: #3c2415;
      }

      .cls-1, .cls-2, .cls-4, .cls-7 {
        stroke-width: 4px;
      }

      .cls-10 {
        fill: #8b5e3c;
      }

      .cls-10, .cls-11, .cls-12, .cls-13, .cls-14 {
        stroke-width: 0px;
      }

      .cls-2, .cls-13, .cls-3, .cls-8 {
        fill: #a97c50;
      }

      .cls-11, .cls-5, .cls-9 {
        fill: #754c29;
      }

      .cls-12 {
        fill: #f6ec6b;
      }

      .cls-3, .cls-5, .cls-8 {
        stroke-width: 6px;
      }

      .cls-4 {
        fill: #f7941d;
      }

      .cls-14 {
        fill: #3c2415;
      }

      .cls-6 {
        fill: #fff;
        stroke: #fff;
      }

      .cls-9 {
        stroke-linecap: round;
        stroke-linejoin: round;
        stroke-width: 5px;
      }

      .cls-7 {
        fill: #231f20;
      }

      .cls-8 {
        stroke: #603913;
      }
    </style>
  </defs>
  <circle class="cls-12" cx="411.19" cy="411.45" r="272.13"/>
  <ellipse class="cls-8" cx="412.59" cy="408.68" rx="75.98" ry="32.62"/>
  <path class="cls-5" d="m314.39,645.72c-33.75-28.57-60.13-62.43-71.12-103.82-16.49-63.02,19.75-121.91,76.08-158.77"/>
  <path class="cls-5" d="m514.49,645.72c33.75-28.57,60.13-62.43,71.12-103.82,16.49-63.02-19.75-121.91-76.08-158.77"/>
  <path class="cls-3" d="m317.46,406.74c-19.94,15.49-35.38,36.68-45.94,59.49-5.69,13.04-8.94,26.89-11.37,41.55-1.62,11.41-.81,22-.81,32.59,1.62,26.89,11.37,50.52,26,74.14,9.75,13.85,20.31,24.44,32.5,35.03,8.94,7.33,18.69,13.85,29.25,18.74,25.18,12.22,52.81,17.11,80.43,14.67,13.81-1.63,27.62-4.89,40.62-9.78,9.75-4.07,18.69-8.96,27.62-14.67,5.69-4.07,10.56-8.15,17.06-12.22,3.25-2.44,5.69-6.52,8.94-8.96,9.75-8.96,16.25-18.74,23.56-30.15,11.37-18.74,18.69-38.29,21.12-59.48,1.62-14.67.81-29.33-.81-44-3.25-22-10.56-40.74-21.94-59.48-9.75-15.48-21.94-26.89-35.86-38.09"/>
  <g>
    <path class="cls-13" d="m525.25,400.47c11.28-5.79,26.59-17.74,30.66-29.44,8.15-25.59,4.07-51.92-4.07-77.51-5.7-17.55-15.48-32.91-18.74-51.19-.81-5.85.81-12.43.81-18.28,0-2.93-.81-5.85-2.44-8.78-4.07-4.39-10.59-2.19-15.48,0-16.3,8.78-30.96,20.48-50.52,18.28-17.11-2.19-34.22-2.93-51.04-.83"/>
    <path class="cls-14" d="m526.51,402.63c8.43-4.35,16.41-10.2,22.88-17.15,3.15-3.38,6.08-7.15,7.96-11.39,2.27-5.09,3.38-10.85,4.23-16.34,1.83-11.81,1.49-23.73-.27-35.53-1.74-11.66-4.71-23.33-8.82-34.38-3.8-10.21-8.75-19.96-12.51-30.18-1.87-5.08-3.64-10.4-4.45-15.77s.68-11.24.85-16.77c.08-2.74-.32-5.45-1.32-8.01-.52-1.33-1.08-2.85-2.1-3.88-.96-.97-2.12-1.68-3.37-2.19-4.34-1.77-9.22-.33-13.33,1.4-4.58,1.93-8.84,4.8-13.14,7.29s-8.63,4.93-13.17,6.96-8.99,3.45-13.74,4.2c-5.37.85-10.61.13-15.95-.46-12.23-1.35-24.57-1.89-36.85-1.07-3.01.2-6.01.49-9,.86-1.34.16-2.5,1.03-2.5,2.5,0,1.22,1.15,2.67,2.5,2.5,11.86-1.46,23.84-1.54,35.74-.71,3.05.21,6.09.49,9.12.81s5.8.78,8.71.93c4.95.26,9.95-.36,14.73-1.66,9.41-2.56,17.88-7.61,26.23-12.48,3.95-2.3,7.86-4.88,12.27-6.19,1.74-.52,3.68-.93,5.47-.57.78.16,1.55.45,2.19.93.94.71,1.37,2.11,1.73,3.2,1.67,5.04.28,10.59-.12,15.74-.21,2.74-.23,5.48.25,8.2s1.13,5.32,1.88,7.92c2.97,10.33,7.67,20.03,11.86,29.89,4.38,10.33,7.7,21.05,10.09,32.01s3.72,22.59,3.1,34.02c-.3,5.6-1.09,11.15-2.39,16.6-.61,2.57-1.22,5.26-2.26,7.69-.81,1.9-1.91,3.69-3.08,5.38-5.22,7.49-12.83,13.51-20.53,18.28-1.77,1.1-3.58,2.13-5.44,3.09-2.86,1.48-.33,5.79,2.52,4.32h0Z"/>
  </g>
  <g>
    <path class="cls-13" d="m414.44,232.72c-16.59-2.83-32.88-1.36-49.18.83-23.63,2.93-40.74-13.16-60.29-19.74-4.89-2.19-11.41,1.46-11.41,6.58,0,8.04,1.63,15.36,0,23.4-4.07,16.82-12.22,30.71-17.92,46.8-8.96,26.33-13.04,54.11-3.26,80.44,2.44,5.12,4.89,10.24,8.15,14.63,5.7,6.58,10.45,11.88,18.37,14.73h0c5.31,2.76,14.22,6.1,20.44,6.52h0c15.83.59,33.64.93,48.3-3.46,10.59-3.66,19.55-8.04,29.33-13.16,5.7-3.66,10.59-8.04,17.11-10.97h0c10.42,7.63,23.13,16.32,36.25,20.8,23.78,8.22,51.66,11.96,74.92.19"/>
    <path class="cls-14" d="m415.1,230.31c-8.47-1.42-17.04-1.86-25.61-1.55s-16.57,1.45-24.86,2.36c-13.25,1.46-25.34-3.62-36.88-9.52-5.78-2.95-11.5-6-17.5-8.47-2.7-1.11-5.67-2.56-8.66-2.47s-6.06,1.39-8.06,3.64c-2.43,2.72-2.55,5.77-2.39,9.25.18,4.02.63,8.04.65,12.07.04,7.96-2.73,15.57-5.58,22.91-2.76,7.09-5.97,14-8.92,21.01-3.11,7.39-5.73,14.93-7.83,22.67-4.18,15.42-6.42,31.63-4.61,47.59.45,4.01,1.12,7.99,2.07,11.91.97,4.03,2.12,8.13,3.91,11.87s3.47,7.16,5.6,10.51c1.95,3.08,4.38,5.8,6.89,8.44,2.29,2.41,4.75,4.66,7.5,6.54s5.58,2.92,8.45,4.29c6.02,2.87,12.57,5.28,19.24,5.97,3.72.39,7.56.31,11.3.37s7.75.06,11.62-.06c7.71-.25,15.47-.96,22.98-2.74,7.52-1.78,14.76-5.08,21.72-8.38,3.52-1.66,6.99-3.42,10.44-5.21s6.32-4.09,9.39-6.26,6.06-4.06,9.39-5.58h-2.52c6.42,4.7,12.96,9.25,19.87,13.2,7.11,4.07,14.57,7.22,22.39,9.62,14.8,4.55,30.63,7.18,46.11,5.48,8.83-.97,17.37-3.32,25.32-7.3,2.88-1.44.35-5.76-2.52-4.32-13.43,6.74-28.72,8.12-43.5,6.5-7.39-.81-14.7-2.42-21.84-4.5s-14.47-4.87-21.25-8.57c-7.72-4.22-14.97-9.24-22.06-14.43-.75-.55-1.76-.35-2.52,0-3.33,1.52-6.4,3.48-9.39,5.58s-5.78,4.38-8.98,6.04c-6.68,3.48-13.45,6.83-20.44,9.63-3.51,1.41-7.05,2.73-10.73,3.61-3.48.84-7.02,1.43-10.57,1.83-7.53.85-15.12.97-22.68.85-3.66-.06-7.37-.05-11.02-.33-3.05-.23-6.09-1.13-8.99-2.08s-5.67-2.03-8.39-3.34-5.69-2.44-8.29-4.22-4.69-3.84-6.76-6.04c-2.4-2.55-4.63-5.12-6.45-8.12-2-3.31-3.88-6.83-5.4-10.39s-2.48-7.44-3.32-11.19c-3.39-15.07-2.59-30.78.54-45.82,1.58-7.57,3.66-15.08,6.24-22.37,2.49-7.03,5.59-13.82,8.55-20.66,3.01-6.94,5.91-13.95,8.03-21.23,1.14-3.91,1.91-7.81,2-11.89s-.32-7.87-.55-11.8c-.1-1.75-.39-3.71-.13-5.45.11-.74.67-1.69,1.39-2.38,1.56-1.5,3.91-2.11,5.92-1.52,5.56,1.64,10.97,4.47,16.15,7.12,11.35,5.8,22.76,11.99,35.68,13.2,7.46.7,14.85-.87,22.26-1.6,8.16-.8,16.37-1.2,24.56-.75,3.93.22,7.84.63,11.73,1.28,1.33.22,2.69-.35,3.08-1.75.33-1.2-.41-2.85-1.75-3.08h0Z"/>
  </g>
  <circle class="cls-1" cx="343.16" cy="329.36" r="48.56"/>
  <circle class="cls-1" cx="483.47" cy="328.36" r="48.56"/>
  <circle class="cls-7" cx="344.28" cy="325.18" r="27.11"/>
  <circle class="cls-7" cx="484.59" cy="325.18" r="27.11"/>
  <path class="cls-4" d="m398.19,356.42c8.48,1.63,42.25-5.5,42.63,8.53l-27.14,40.97h0l-29.33-41.22s3.29-8.29,13.84-8.29Z"/>
  <circle class="cls-6" cx="362.52" cy="309.44" r="7.18"/>
  <circle class="cls-6" cx="358.54" cy="328.38" r="3.2"/>
  <circle class="cls-6" cx="503.37" cy="309.14" r="7.18"/>
  <circle class="cls-6" cx="499.38" cy="328.08" r="3.2"/>
  <path class="cls-9" d="m533.1,242.33c-3.54-7.52,6.18-16.01-2.63-27.32-3.45-4.42-13.84,1.26-19.1,3.06l-8,4.42c-12.42,16.92-63.55,35.49-88.94,51.66v6.66c23.2-3.05,48.42-11.04,70.32-21.39,0,0-5.84,2.76,0,0,12.85-6.07,36.83-8.55,48.34-17.08h0Z"/>
  <path class="cls-10" d="m385.27,518.98c3.31,3.03,6.62,6.06,9.92,9.09l7.04,6.44c2.11,1.93,4.07,3.9,6.83,4.89,3.47,1.24,7.05.18,9.85-1.98s5.28-4.61,7.87-6.93c4.38-3.92,8.75-7.84,13.13-11.76,2.93-2.62,2.87-7.97,0-10.61-3.13-2.87-7.48-2.8-10.61,0-3.39,3.04-6.79,6.08-10.18,9.12-1.4,1.26-2.81,2.51-4.21,3.77-.96.86-1.92,1.71-2.87,2.57-.55.49-1.1.98-1.65,1.47-.13.12-.83.89-1.02.91l.88-.67c-.22.16-.44.29-.68.41l1.79-.76c-.23.11-.48.19-.74.23l1.99-.27c-.26.04-.53.03-.79-.01l1.99.27c-.27-.05-.53-.12-.77-.23l1.79.76c-1.07-.55.44.47.5.51-.22-.11-.56-.51-.72-.66l-1.17-1.07-2.41-2.2-3.02-2.77-2.3-2.11-1.77-1.62c-2.69-2.47-5.39-4.93-8.08-7.4-2.89-2.65-7.78-3.07-10.61,0-2.65,2.89-3.09,7.78,0,10.61h0Z"/>
  <path class="cls-10" d="m317.16,465.04c3.31,3.03,6.62,6.06,9.92,9.09l7.04,6.44c2.11,1.93,4.07,3.9,6.83,4.89,3.47,1.24,7.05.18,9.85-1.98s5.28-4.61,7.87-6.93c4.38-3.92,8.75-7.84,13.13-11.76,2.93-2.62,2.87-7.97,0-10.61-3.13-2.87-7.48-2.8-10.61,0-3.39,3.04-6.79,6.08-10.18,9.12-1.4,1.26-2.81,2.51-4.21,3.77-.96.86-1.92,1.71-2.87,2.57-.55.49-1.1.98-1.65,1.47-.13.12-.83.89-1.02.91l.88-.67c-.22.16-.44.29-.68.41l1.79-.76c-.23.11-.48.19-.74.23l1.99-.27c-.26.04-.53.03-.79-.01l1.99.27c-.27-.05-.53-.12-.77-.23l1.79.76c-1.07-.55.44.47.5.51-.22-.11-.56-.51-.72-.66l-1.17-1.07-2.41-2.2-3.02-2.77-2.3-2.11-1.77-1.62c-2.69-2.47-5.39-4.93-8.08-7.4-2.89-2.65-7.78-3.07-10.61,0-2.65,2.89-3.09,7.78,0,10.61h0Z"/>
  <path class="cls-10" d="m456.15,466.44c3.31,3.03,6.62,6.06,9.92,9.09,2.35,2.15,4.69,4.3,7.04,6.44,2.11,1.93,4.07,3.9,6.83,4.89,3.47,1.24,7.05.18,9.85-1.98s5.28-4.61,7.87-6.93c4.38-3.92,8.75-7.84,13.13-11.76,2.93-2.62,2.87-7.97,0-10.61-3.13-2.87-7.48-2.8-10.61,0-3.39,3.04-6.79,6.08-10.18,9.12-1.4,1.26-2.81,2.51-4.21,3.77-.96.86-1.92,1.71-2.87,2.57-.55.49-1.1.98-1.65,1.47-.13.12-.83.89-1.02.91l.88-.67c-.22.16-.44.29-.68.41l1.79-.76c-.23.11-.48.19-.74.23l1.99-.27c-.26.04-.53.03-.79-.01l1.99.27c-.27-.05-.53-.12-.77-.23l1.79.76c-1.07-.55.44.47.5.51-.22-.11-.56-.51-.72-.66l-1.17-1.07-2.41-2.2-3.02-2.77-2.3-2.11-1.77-1.62-8.08-7.4c-2.89-2.65-7.78-3.07-10.61,0-2.65,2.89-3.09,7.78,0,10.61h0Z"/>
  <path class="cls-10" d="m288.73,555.2c3.31,3.03,6.62,6.06,9.92,9.09l7.04,6.44c2.11,1.93,4.07,3.9,6.83,4.89,3.47,1.24,7.05.18,9.85-1.98s5.28-4.61,7.87-6.93c4.38-3.92,8.75-7.84,13.13-11.76,2.93-2.62,2.87-7.97,0-10.61-3.13-2.87-7.48-2.8-10.61,0-3.39,3.04-6.79,6.08-10.18,9.12-1.4,1.26-2.81,2.51-4.21,3.77-.96.86-1.92,1.71-2.87,2.57-.55.49-1.1.98-1.65,1.47-.13.12-.83.89-1.02.91l.88-.67c-.22.16-.44.29-.68.41l1.79-.76c-.23.11-.48.19-.74.23l1.99-.27c-.26.04-.53.03-.79-.01l1.99.27c-.27-.05-.53-.12-.77-.23l1.79.76c-1.07-.55.44.47.5.51-.22-.11-.56-.51-.72-.66l-1.17-1.07-2.41-2.2-3.02-2.77-2.3-2.11-1.77-1.62c-2.69-2.47-5.39-4.93-8.08-7.4-2.89-2.65-7.78-3.07-10.61,0-2.65,2.89-3.09,7.78,0,10.61h0Z"/>
  <path class="cls-10" d="m483.26,555.2c3.31,3.03,6.62,6.06,9.92,9.09l7.04,6.44c2.11,1.93,4.07,3.9,6.83,4.89,3.47,1.24,7.05.18,9.85-1.98s5.28-4.61,7.87-6.93c4.38-3.92,8.75-7.84,13.13-11.76,2.93-2.62,2.87-7.97,0-10.61-3.13-2.87-7.48-2.8-10.61,0-3.39,3.04-6.79,6.08-10.18,9.12-1.4,1.26-2.81,2.51-4.21,3.77-.96.86-1.92,1.71-2.87,2.57-.55.49-1.1.98-1.65,1.47-.13.12-.83.89-1.02.91l.88-.67c-.22.16-.44.29-.68.41l1.79-.76c-.23.11-.48.19-.74.23l1.99-.27c-.26.04-.53.03-.79-.01l1.99.27c-.27-.05-.53-.12-.77-.23l1.79.76c-1.07-.55.44.47.5.51-.22-.11-.56-.51-.72-.66l-1.17-1.07-2.41-2.2-3.02-2.77-2.3-2.11-1.77-1.62c-2.69-2.47-5.39-4.93-8.08-7.4-2.89-2.65-7.78-3.07-10.61,0-2.65,2.89-3.09,7.78,0,10.61h0Z"/>
  <path class="cls-10" d="m385.27,610.13c3.31,3.03,6.62,6.06,9.92,9.09l7.04,6.44c2.11,1.93,4.07,3.9,6.83,4.89,3.47,1.24,7.05.18,9.85-1.98s5.28-4.61,7.87-6.93c4.38-3.92,8.75-7.84,13.13-11.76,2.93-2.62,2.87-7.97,0-10.61-3.13-2.87-7.48-2.8-10.61,0-3.39,3.04-6.79,6.08-10.18,9.12-1.4,1.26-2.81,2.51-4.21,3.77-.96.86-1.92,1.71-2.87,2.57-.55.49-1.1.98-1.65,1.47-.13.12-.83.89-1.02.91l.88-.67c-.22.16-.44.29-.68.41l1.79-.76c-.23.11-.48.19-.74.23l1.99-.27c-.26.04-.53.03-.79-.01l1.99.27c-.27-.05-.53-.12-.77-.23l1.79.76c-1.07-.55.44.47.5.51-.22-.11-.56-.51-.72-.66l-1.17-1.07-2.41-2.2-3.02-2.77-2.3-2.11-1.77-1.62c-2.69-2.47-5.39-4.93-8.08-7.4-2.89-2.65-7.78-3.07-10.61,0-2.65,2.89-3.09,7.78,0,10.61h0Z"/>
  <path class="cls-9" d="m294.57,242.33c3.54-7.52-6.18-16.01,2.63-27.32,3.45-4.42,13.84,1.26,19.1,3.06l8,4.42c12.42,16.92,63.55,35.49,88.94,51.66v6.66c-23.2-3.05-48.42-11.04-70.32-21.39,0,0,5.84,2.76,0,0-12.85-6.07-36.83-8.55-48.34-17.08h0Z"/>
  <rect class="cls-11" x="411.19" y="275.27" width="5.29" height="3.18"/>
  <path class="cls-2" d="m500.55,380.62c-3.8-8.16,2.6-19.2,14.3-24.64,11.7-5.45,24.26-3.24,28.06,4.92"/>
  <path class="cls-2" d="m330.29,383.96c3.8-8.16-2.6-19.2-14.3-24.64-11.7-5.45-24.26-3.24-28.06,4.92"/>
</svg>