<?xml version="1.0" encoding="UTF-8"?>
<svg id="Layer_1" data-name="Layer 1" xmlns="http://www.w3.org/2000/svg" viewBox="0 0 193 193">
  <defs>
    <style>
      .cls-1 {
        fill: #a96900;
      }

      .cls-1, .cls-2, .cls-3 {
        stroke-linecap: round;
        stroke-linejoin: round;
      }

      .cls-1, .cls-2, .cls-3, .cls-4, .cls-5, .cls-6, .cls-7, .cls-8 {
        stroke: #432918;
      }

      .cls-2, .cls-4, .cls-9 {
        fill: #7d4e24;
      }

      .cls-3 {
        fill: #f39200;
      }

      .cls-4, .cls-10, .cls-11, .cls-5, .cls-6, .cls-7, .cls-8, .cls-12 {
        stroke-miterlimit: 10;
      }

      .cls-10 {
        stroke: #1d1d1b;
      }

      .cls-10, .cls-11 {
        fill: #fff;
      }

      .cls-11 {
        stroke: #fff;
      }

      .cls-5, .cls-12, .cls-13 {
        fill: #b17f4a;
      }

      .cls-6 {
        fill: #1d1d1b;
      }

      .cls-7 {
        fill: #fab70e;
      }

      .cls-8 {
        fill: none;
      }

      .cls-12 {
        stroke: #683c11;
        stroke-width: 6px;
      }

      .cls-14 {
        fill: #432918;
      }

      .cls-14, .cls-13, .cls-9, .cls-15 {
        stroke-width: 0px;
      }

      .cls-15 {
        fill: #936037;
      }
    </style>
  </defs>
  <rect class="cls-10" x=".5" y=".5" width="192" height="192"/>
  <circle class="cls-8" cx="96.5" cy="96.5" r="96"/>
  <ellipse class="cls-12" cx="96.55" cy="83.25" rx="26.91" ry="11.55"/>
  <path class="cls-4" d="m61.77,167.19c-11.95-10.12-21.29-22.11-25.19-36.76-5.84-22.32,6.99-43.17,26.94-56.23"/>
  <path class="cls-4" d="m132.64,167.19c11.95-10.12,21.29-22.11,25.19-36.76,5.84-22.32-6.99-43.17-26.94-56.23"/>
  <path class="cls-5" d="m62.86,82.56c-7.06,5.49-12.53,12.99-16.27,21.07-2.01,4.62-3.16,9.52-4.03,14.72-.58,4.04-.29,7.79-.29,11.54.58,9.52,4.03,17.89,9.21,26.26,3.45,4.91,7.19,8.66,11.51,12.41,3.16,2.6,6.62,4.91,10.36,6.64,8.92,4.33,18.7,6.06,28.48,5.19,4.89-.58,9.78-1.73,14.39-3.46,3.45-1.44,6.62-3.17,9.78-5.19,2.01-1.44,3.74-2.89,6.04-4.33,1.15-.87,2.01-2.31,3.16-3.17,3.45-3.17,5.75-6.64,8.34-10.68,4.03-6.64,6.62-13.56,7.48-21.06.58-5.19.29-10.39-.29-15.58-1.15-7.79-3.74-14.43-7.77-21.06-3.45-5.48-7.77-9.52-12.7-13.49"/>
  <ellipse class="cls-5" cx="69.64" cy="180.07" rx="4.13" ry="6.22"/>
  <ellipse class="cls-5" cx="76.09" cy="180.59" rx="4.13" ry="6.22"/>
  <ellipse class="cls-5" cx="82.78" cy="180.59" rx="4.13" ry="6.22"/>
  <ellipse class="cls-5" cx="123.81" cy="180.07" rx="4.13" ry="6.22"/>
  <ellipse class="cls-5" cx="117.36" cy="180.59" rx="4.13" ry="6.22"/>
  <ellipse class="cls-5" cx="110.68" cy="180.59" rx="4.13" ry="6.22"/>
  <g>
    <path class="cls-13" d="m136.45,80.34c4-2.05,9.41-6.28,10.86-10.43,2.89-9.06,1.44-18.39-1.44-27.45-2.02-6.22-5.48-11.65-6.64-18.13-.29-2.07.29-4.4.29-6.47,0-1.04-.29-2.07-.87-3.11-1.44-1.55-3.75-.78-5.48,0-5.77,3.11-10.96,7.25-17.89,6.47-6.06-.78-12.12-1.04-18.07-.29"/>
    <path class="cls-14" d="m136.76,80.88c2.96-1.54,5.75-3.57,8.03-6.01,2.54-2.72,3.62-5.77,4.22-9.41,1.36-8.26-.25-17.01-3.12-24.79-1.36-3.69-3.15-7.2-4.5-10.89-.68-1.86-1.39-3.87-1.59-5.85s.37-4.03.34-6.06c-.02-1.37-.4-3.17-1.58-4s-2.75-.7-4.09-.28c-3.3,1.04-6.17,3.38-9.25,4.91-1.86.92-3.82,1.68-5.87,2.02-2.29.37-4.49.02-6.77-.21-5.11-.52-10.26-.6-15.37.02-.79.09-.8,1.35,0,1.25,4.13-.5,8.28-.55,12.43-.27,3.69.25,7.33,1.07,11,.23,3.17-.73,6.06-2.33,8.85-3.95,2.23-1.29,7.99-5.55,9.21-1.1.51,1.84-.04,3.86-.15,5.72-.1,1.74.24,3.38.71,5.05.96,3.42,2.47,6.65,3.87,9.9,3.2,7.4,5.4,15.59,5.09,23.71-.15,4.15-.75,8.82-3.45,12.13-2.32,2.85-5.41,5.12-8.65,6.81-.71.37-.08,1.45.63,1.08h0Z"/>
  </g>
  <g>
    <path class="cls-13" d="m97.2,20.93c-5.87-1-11.64-.48-17.42.29-8.37,1.04-14.43-4.66-21.35-6.99-1.73-.78-4.04.52-4.04,2.33,0,2.85.58,5.44,0,8.29-1.44,5.96-4.33,10.88-6.35,16.57-3.17,9.32-4.62,19.16-1.15,28.49.87,1.81,1.73,3.63,2.89,5.18,2.02,2.33,3.7,4.21,6.51,5.22h0c1.88.98,5.04,2.16,7.24,2.31h0c5.61.21,11.91.33,17.11-1.22,3.75-1.29,6.92-2.85,10.39-4.66,2.02-1.29,3.75-2.85,6.06-3.88h0c3.69,2.7,8.19,5.78,12.84,7.37,8.42,2.91,18.29,4.24,26.53.07"/>
    <path class="cls-14" d="m97.37,20.33c-6.08-.99-11.93-.28-17.99.32-5.07.5-9.6-1.67-13.98-3.93-2-1.03-4-2.07-6.11-2.85-1.72-.64-3.6-.7-4.85.89-1.35,1.72-.47,4.63-.41,6.62.09,3.03-.85,5.84-1.93,8.63-2.03,5.26-4.54,10.24-6.01,15.71s-2.25,11.3-1.55,16.99,2.61,10.6,6.42,14.6c1.65,1.74,3.44,2.8,5.6,3.8,2.01.93,4.13,1.75,6.33,2.04,2.97.39,6.15.26,9.14.13s5.97-.42,8.79-1.31,5.75-2.29,8.49-3.67,5.23-3.59,8.11-4.94h-.63c3.05,2.23,6.18,4.39,9.59,6.02,3.17,1.52,6.6,2.54,10.04,3.25,6.83,1.41,14.02,1.3,20.37-1.84.72-.36.09-1.43-.63-1.08-6.29,3.11-13.51,3.05-20.23,1.54-3.34-.75-6.66-1.78-9.71-3.35s-5.98-3.57-8.79-5.63c-.19-.14-.44-.09-.63,0-2.28,1.07-4.1,2.77-6.27,3.99-2.37,1.33-4.9,2.5-7.42,3.51-5.01,2.02-10.23,2.37-15.58,2.29-2.46-.03-4.81-.06-7.17-.81-2.05-.65-4.32-1.53-6.11-2.73-4.4-2.98-6.95-8.23-8.01-13.28-1.15-5.44-.77-11.09.41-16.49s3.15-10.11,5.27-15.03c.98-2.28,1.93-4.59,2.63-6.98.76-2.58.79-5,.61-7.66-.08-1.14-.46-2.76.37-3.69s2.03-.86,3.11-.47c2.02.73,3.92,1.69,5.83,2.67,4.25,2.19,8.64,4.41,13.54,4.35,3.01-.04,6.02-.69,9.04-.87,3.35-.2,6.71-.11,10.03.43.79.13,1.13-1.08.33-1.21h0Z"/>
  </g>
  <circle class="cls-7" cx="71.96" cy="55.16" r="17.2"/>
  <circle class="cls-7" cx="121.65" cy="55.16" r="17.2"/>
  <path class="cls-1" d="m91.68,64.76c4.25.52,7.96-1.15,14.87,1.31l-9.38,18.78h0l-11.02-18.66s1.82-1.88,5.53-1.43Z"/>
  <circle class="cls-6" cx="72.15" cy="53.04" r="9.6"/>
  <circle class="cls-6" cx="121.83" cy="53.04" r="9.6"/>
  <path class="cls-3" d="m91.45,64.66c3,.27,14.96-.91,15.1,1.41l-9.61,6.77h0l-10.39-6.81s1.17-1.37,4.9-1.37Z"/>
  <circle class="cls-11" cx="78.82" cy="48.1" r="2.54"/>
  <circle class="cls-11" cx="77.41" cy="54.81" r="1.13"/>
  <circle class="cls-11" cx="128.7" cy="48" r="2.54"/>
  <circle class="cls-11" cx="127.29" cy="54.7" r="1.13"/>
  <path class="cls-2" d="m139.23,24.34c-1.25-2.66,2.19-5.67-.93-9.67-1.22-1.57-4.9.45-6.76,1.08l-2.83,1.56c-4.4,5.99-22.5,12.57-31.49,18.29v2.36c8.21-1.08,17.15-3.91,24.9-7.57,0,0-2.07.98,0,0,4.55-2.15,13.04-3.03,17.12-6.05h0Z"/>
  <path class="cls-15" d="m86.99,122.2l3.54,3.24,2.81,2.57c.64.59,1.26,1.14,2.11,1.41.95.3,2.02.11,2.86-.41,1.11-.69,2.06-1.76,3.03-2.62,1.59-1.43,3.19-2.85,4.78-4.28.98-.87.96-2.66,0-3.54-1.04-.96-2.49-.93-3.54,0-1.33,1.19-2.67,2.39-4,3.58-.67.6-1.34,1.2-2,1.79-.2.18-.41.36-.61.55-.07.06-.31.22-.34.3.06-.2,1.15-.18.79-.22l.5.2c.51.27.64.31.38.1-.07-.11-.23-.21-.33-.3l-.76-.7-2.36-2.16-3.33-3.05c-.96-.88-2.59-1.02-3.54,0-.88.96-1.03,2.59,0,3.54h0Z"/>
  <path class="cls-15" d="m62.86,103.09l3.54,3.24,2.81,2.57c.64.59,1.26,1.14,2.11,1.41.95.3,2.02.11,2.86-.41,1.11-.69,2.06-1.76,3.03-2.62,1.59-1.43,3.19-2.85,4.78-4.28.98-.87.96-2.66,0-3.54-1.04-.96-2.49-.93-3.54,0-1.33,1.19-2.67,2.39-4,3.58-.67.6-1.34,1.2-2,1.79-.2.18-.41.36-.61.55-.07.06-.31.22-.34.3.06-.2,1.15-.18.79-.22l.5.2c.51.27.64.31.38.1-.07-.11-.23-.21-.33-.3l-.76-.7-2.36-2.16-3.33-3.05c-.96-.88-2.59-1.02-3.54,0-.88.96-1.03,2.59,0,3.54h0Z"/>
  <path class="cls-15" d="m112.09,103.59l3.54,3.24,2.81,2.57c.64.59,1.26,1.14,2.11,1.41.95.3,2.02.11,2.86-.41,1.11-.69,2.06-1.76,3.03-2.62,1.59-1.43,3.19-2.85,4.78-4.28.98-.87.96-2.66,0-3.54-1.04-.96-2.49-.93-3.54,0-1.33,1.19-2.67,2.39-4,3.58-.67.6-1.34,1.2-2,1.79-.2.18-.41.36-.61.55-.07.06-.31.22-.34.3.06-.2,1.15-.18.79-.22l.5.2c.51.27.64.31.38.1-.07-.11-.23-.21-.33-.3l-.76-.7-2.36-2.16-3.33-3.05c-.96-.88-2.59-1.02-3.54,0-.88.96-1.03,2.59,0,3.54h0Z"/>
  <path class="cls-15" d="m52.8,135.02l3.54,3.24,2.81,2.57c.64.59,1.26,1.14,2.11,1.41.95.3,2.02.11,2.86-.41,1.11-.69,2.06-1.76,3.03-2.62,1.59-1.43,3.19-2.85,4.78-4.28.98-.87.96-2.66,0-3.54-1.04-.96-2.49-.93-3.54,0-1.33,1.19-2.67,2.39-4,3.58-.67.6-1.34,1.2-2,1.79-.2.18-.41.36-.61.55-.07.06-.31.22-.34.3.06-.2,1.15-.18.79-.22l.5.2c.51.27.64.31.38.1-.07-.11-.23-.21-.33-.3l-.76-.7-2.36-2.16-3.33-3.05c-.96-.88-2.59-1.02-3.54,0-.88.96-1.03,2.59,0,3.54h0Z"/>
  <path class="cls-15" d="m121.69,135.02l3.54,3.24,2.81,2.57c.64.59,1.26,1.14,2.11,1.41.95.3,2.02.11,2.86-.41,1.11-.69,2.06-1.76,3.03-2.62,1.59-1.43,3.19-2.85,4.78-4.28.98-.87.96-2.66,0-3.54-1.04-.96-2.49-.93-3.54,0-1.33,1.19-2.67,2.39-4,3.58-.67.6-1.34,1.2-2,1.79-.2.18-.41.36-.61.55-.07.06-.31.22-.34.3.06-.2,1.15-.18.79-.22l.5.2c.51.27.64.31.38.1-.07-.11-.23-.21-.33-.3l-.76-.7-2.36-2.16-3.33-3.05c-.96-.88-2.59-1.02-3.54,0-.88.96-1.03,2.59,0,3.54h0Z"/>
  <path class="cls-15" d="m86.99,154.47l3.54,3.24,2.81,2.57c.64.59,1.26,1.14,2.11,1.41.95.3,2.02.11,2.86-.41,1.11-.69,2.06-1.76,3.03-2.62,1.59-1.43,3.19-2.85,4.78-4.28.98-.87.96-2.66,0-3.54-1.04-.96-2.49-.93-3.54,0-1.33,1.19-2.67,2.39-4,3.58-.67.6-1.34,1.2-2,1.79-.2.18-.41.36-.61.55-.07.06-.31.22-.34.3.06-.2,1.15-.18.79-.22l.5.2c.51.27.64.31.38.1-.07-.11-.23-.21-.33-.3l-.76-.7-2.36-2.16-3.33-3.05c-.96-.88-2.59-1.02-3.54,0-.88.96-1.03,2.59,0,3.54h0Z"/>
  <path class="cls-2" d="m54.75,24.34c1.25-2.66-2.19-5.67.93-9.67,1.22-1.57,4.9.45,6.76,1.08l2.83,1.56c4.4,5.99,22.5,12.57,31.49,18.29v2.36c-8.21-1.08-17.15-3.91-24.9-7.57,0,0,2.07.98,0,0-4.55-2.15-13.04-3.03-17.12-6.05h0Z"/>
  <rect class="cls-9" x="96.05" y="36" width="1.87" height="1.13"/>
  <path class="cls-5" d="m127.7,73.31c-1.35-2.89.92-6.8,5.06-8.73s8.59-1.15,9.94,1.74"/>
  <path class="cls-5" d="m67.41,74.49c1.35-2.89-.92-6.8-5.06-8.73s-8.59-1.15-9.94,1.74"/>
</svg>